<?xml version="1.0" encoding="UTF-8"?>
<svg xmlns="http://www.w3.org/2000/svg" id="Layer_7" data-name="Layer 7" viewBox="0 0 381.52 381.52">
    <defs>
        <style>.cls-1{fill:#fff;}</style>
    </defs>
    <title>logo</title>
    <path class="cls-1" id="logo_iya" d="M198.47,260.74l9.8-13.79H205L197.22,258,192.09,247h-2.66l-5.07,11-7.65-11h-3.46L183,260.76,172.12,284.4H175L179.71,274h9.67V284.4h2.76V274h9.51l4.73,10.41h3Zm-9.09,10.75h-8.5l3.83-8.39,4.67,6.58Zm0-6.36L186,260.28l3.38-7.4Zm2.76-12,3.35,7.37-3.35,4.79Zm0,18.36v-1.86l4.57-6.43,3.77,8.29Z" /> <!--IYA base logo thing-->
    <rect class="cls-1" x="190.51" y="71.57" width="0.5" height="238.39" transform="translate(-79.02 190.76) rotate(-45)" />
    <rect class="cls-1" x="71.57" y="190.51" width="238.39" height="0.5" transform="translate(-79.02 190.76) rotate(-45)" />
    <path class="cls-1" id="logo_i" d="M195.63,97.12v37.45h-9.74V97.12Z" /><!-- I -->
    <path class="cls-1" id="logo_y" d="M110.23,191.49,96.68,172h11.63l7.08,10.21,6.8-10.21H134l-14,19.45v18h-9.74Z" /><!--Y-->
    <path class="cls-1" id="logo_a" d="M273.84,203H260.4l-2.58,6.53H247.53L261.94,172h10.62l14.1,37.45h-10.4Zm-2.63-7.41-4-11.93-4.09,11.93Z" /><!--A-->
    <path class="cls-1" d="M120.84,320.55l.45-.84.65.35-.45.84Z" />
    <path class="cls-1" d="M139.22,332.09a3.91,3.91,0,0,1-2.27-5.15v0a4,4,0,0,1,5.1-2.46,4.15,4.15,0,0,1,2.43,2.24L144,327a3.61,3.61,0,0,0-2.09-2,3.36,3.36,0,0,0-4.33,2.15v0a3.39,3.39,0,0,0,1.9,4.47,3.6,3.6,0,0,0,3-.21l.24.49A4.15,4.15,0,0,1,139.22,332.09Z" />
    <path class="cls-1" d="M152.83,336.33a3.92,3.92,0,0,1-2.8-4.91v0a4,4,0,1,1,7.67,2s0,0,0,0A4,4,0,0,1,152.83,336.33Zm4.27-3.09a3.4,3.4,0,0,0-2.36-4.27,3.37,3.37,0,0,0-4.12,2.57v0a3.4,3.4,0,0,0,2.36,4.27,3.37,3.37,0,0,0,4.11-2.57Z" />
    <path class="cls-1" d="M170.19,339.64l.56-3.64-5-.77-.56,3.64-.58-.09,1.2-7.78.58.09-.55,3.6,5,.77.55-3.6.58.09-1.2,7.78Z" />
    <path class="cls-1" d="M182.8,340.95a3.92,3.92,0,0,1-3.73-4.24v0a4,4,0,1,1,7.9.39s0,0,0,0A4,4,0,0,1,182.8,340.95Zm3.56-3.89a3.4,3.4,0,0,0-3.17-3.71,3.36,3.36,0,0,0-3.51,3.34v0a3.4,3.4,0,0,0,3.17,3.71,3.36,3.36,0,0,0,3.51-3.34Z" />
    <path class="cls-1" d="M200.48,340.73l-2.66-3.14-2.57.12.15,3.26-.58,0-.36-7.86,3.3-.15c1.7-.08,2.85.79,2.91,2.1v0c.06,1.31-.88,2.11-2.2,2.35l2.75,3.24Zm-.39-5.6c0-1.06-.91-1.68-2.34-1.61l-2.68.12.16,3.54,2.65-.12c1.31-.06,2.26-.77,2.21-1.9Z" />
    <path class="cls-1" d="M210.6,332.32l1,7.26-.58.08-1-7.26-2.72.37-.07-.54,6-.82.07.54Z" />
    <path class="cls-1" d="M231.09,335.55,229,328l.56-.16,2.13,7.57Z" />
    <path class="cls-1" d="M242.82,331.82l-.49.18-6-6.24.61-.23,5.38,5.73.4-7.86.58-.21Z" />
    <path class="cls-1" d="M259.86,321l-.45-.84.65-.35.45.84Z" />
    <path class="cls-1" d="M51.51,162.1l-7.7-1.59.12-.57,7.7,1.59Z" />
    <path class="cls-1" d="M56.23,145.17a3.92,3.92,0,0,1-5.1,2.44h0a4,4,0,1,1,2.51-7.5s0,0,0,0A4,4,0,0,1,56.23,145.17Zm-2.78-4.49A3.41,3.41,0,0,0,49,142.73,3.37,3.37,0,0,0,51.28,147h0A3.41,3.41,0,0,0,55.73,145a3.37,3.37,0,0,0-2.26-4.29Z" />
    <path class="cls-1" d="M63.79,126.93l-.23.46-8.63-.46.29-.58,7.85.49-5.08-6,.28-.55Z" />
    <path class="cls-1" d="M71.84,112.87l-6.57-4.33.32-.49,6.57,4.33Z" />
    <path class="cls-1" d="M84,96.9l-8.91-.28,5.33,4.51-.36.43-6-5.07.35-.42,8.72.27-5.22-4.41.36-.43,6,5.07Z" />
    <path class="cls-1" d="M93.56,87l-5.28-5.83,4.15-3.75.36.4-3.71,3.36,2.07,2.29,3.34-3,.36.4-3.34,3,2.12,2.34,3.76-3.4.36.4Z" />
    <path class="cls-1" d="M125.12,64.79l-1.87-.57a3.43,3.43,0,0,1-1.68,2.47,2.23,2.23,0,0,1-3.17-.75c-.51-.94-.23-2,.67-3a2.59,2.59,0,0,1-1.64-1.16,1.83,1.83,0,0,1,.86-2.52,1.75,1.75,0,0,1,2.41.63c.48.88.15,1.78-.71,2.72l2.83.86a10.18,10.18,0,0,0,0-2.17l.57-.07a11,11,0,0,1,0,2.39l2,.61Zm-6.62-5.1a1.29,1.29,0,0,0-.57,1.78c.24.44.61.67,1.58,1,.81-.86,1.05-1.6.68-2.27A1.22,1.22,0,0,0,118.5,59.69Zm1,3.39c-.89,1-1,1.88-.64,2.56a1.73,1.73,0,0,0,2.44.61,3,3,0,0,0,1.4-2.18Z" />
    <path class="cls-1" d="M152.6,50.56l.82,3-.56.15-.82-3L147.54,47l.7-.19,4,3.3,1.74-4.85.67-.18Z" />
    <path class="cls-1" d="M171.83,50a3.92,3.92,0,0,1-4.44-3.49v0a4,4,0,1,1,7.84-1.06s0,0,0,0A4,4,0,0,1,171.83,50Zm2.79-4.48a3.4,3.4,0,0,0-3.8-3.07A3.37,3.37,0,0,0,168,46.39v0a3.4,3.4,0,0,0,3.8,3.07,3.37,3.37,0,0,0,2.84-3.93Z" />
    <path class="cls-1" d="M191.76,48.75a3.07,3.07,0,0,1-3.17-3.44l.08-4.59h.58l-.07,4.54c0,1.85,1,2.94,2.61,3s2.63-.92,2.66-2.82l.08-4.59h.58L195,45.34C195,47.6,193.67,48.78,191.76,48.75Z" />
    <path class="cls-1" d="M214.19,50.51l-4.48-7.72-1,6.92-.56-.08,1.13-7.79.54.08,4.39,7.56,1-6.77.56.08-1.13,7.79Z" />
    <path class="cls-1" d="M231,54.55a3.83,3.83,0,0,1-2.66-5v0a3.93,3.93,0,0,1,4.88-2.81,4.12,4.12,0,0,1,2.47,1.8l-.49.31a3.54,3.54,0,0,0-2.16-1.62A3.34,3.34,0,0,0,229,49.68v0a3.28,3.28,0,0,0,2.24,4.36,4,4,0,0,0,2.66-.16l.63-2.17L232,51l.15-.52,3.06.9-.85,2.91A4.73,4.73,0,0,1,231,54.55Z" />
    <path class="cls-1" d="M264.93,69.43l.24-2.41-4-2.33-2,1.4-.52-.3,7.15-5,.49.28-.81,8.69Zm.79-8-4.08,2.89,3.59,2.08Z" />
    <path class="cls-1" d="M278.29,78.93a3.91,3.91,0,0,1-.61-5.6v0a4,4,0,0,1,5.6-.8,4.15,4.15,0,0,1,1.64,2.87l-.59.08A3.61,3.61,0,0,0,283,72.92a3.36,3.36,0,0,0-4.78.75v0a3.39,3.39,0,0,0,.46,4.84,3.6,3.6,0,0,0,2.89.69l.08.54A4.15,4.15,0,0,1,278.29,78.93Z" />
    <path class="cls-1" d="M294.78,93.83l.88-2.26-3.25-3.32-2.28.82-.42-.43,8.23-2.92.39.4-3.11,8.16Zm2.89-7.46L293,88.06l2.9,3Z" />
    <path class="cls-1" d="M304.91,106l-1.55-2.11,6.33-4.67,1.55,2.11a3.92,3.92,0,0,1-.67,5.69h0A3.94,3.94,0,0,1,304.91,106Zm5.29.54a3.36,3.36,0,0,0,.61-4.89l-1.21-1.64-5.46,4,1.21,1.64a3.34,3.34,0,0,0,4.83.88Z" />
    <path class="cls-1" d="M314.31,120.38l6.9-3.77,2.68,4.91-.47.26-2.4-4.4-2.71,1.48,2.16,4-.47.26-2.16-4-2.77,1.51,2.43,4.45-.47.26Z" />
    <path class="cls-1" d="M324.85,143.36l6.39-2.42-5.34-1.31,0,0,3.13-4.52-6.39,2.42-.2-.53,7.36-2.79.2.52-3.23,4.6,5.47,1.31.2.52-7.36,2.79Z" />
    <path class="cls-1" d="M332.56,159l-3,.69-.13-.57,3-.69,3.9-4.34.16.71-3.48,3.8,4.77,2,.15.68Z" />
    <path class="cls-1" d="M190.76,17.83A172.93,172.93,0,0,1,313,313,172.93,172.93,0,1,1,68.48,68.48,171.8,171.8,0,0,1,190.76,17.83m0-.25A173.18,173.18,0,1,0,363.94,190.76,173.18,173.18,0,0,0,190.76,17.58Z" />
    <path class="cls-1" d="M190.76,6c102,0,184.76,82.72,184.76,184.76S292.8,375.52,190.76,375.52,6,292.8,6,190.76,88.72,6,190.76,6m0-6a190.81,190.81,0,0,0-74.26,366.53A190.81,190.81,0,0,0,265,15,189.57,189.57,0,0,0,190.76,0Z" />
</svg>