<svg id="Layer_7" data-name="Layer 7" xmlns="http://www.w3.org/2000/svg" viewBox="0 0 381.52 381.52"><defs><style>.cls-1,.cls-2{fill:#fff;}.cls-2{font-size:11.24px;font-family:Gotham-Light, Gotham Light;}</style></defs><title>Artboard 2</title><path class="cls-1" d="M198.47,260.74l9.8-13.79H205L197.22,258,192.09,247h-2.66l-5.07,11-7.65-11h-3.46L183,260.76,172.12,284.4H175L179.71,274h9.67V284.4h2.76V274h9.51l4.73,10.41h3Zm-9.09,10.75h-8.5l3.83-8.39,4.67,6.58Zm0-6.36L186,260.28l3.38-7.4Zm2.76-12,3.35,7.37-3.35,4.79Zm0,18.36v-1.86l4.57-6.43,3.77,8.29Z"/><rect class="cls-1" x="190.51" y="71.57" width="0.5" height="238.39" transform="translate(-79.02 190.76) rotate(-45)"/><rect class="cls-1" x="71.57" y="190.51" width="238.39" height="0.5" transform="translate(-79.02 190.76) rotate(-45)"/><path class="cls-1" d="M195.63,97.12v37.45h-9.74V97.12Z"/><path class="cls-1" d="M110.23,191.49,96.68,172h11.63l7.08,10.21,6.8-10.21H134l-14,19.45v18h-9.74Z"/><path class="cls-1" d="M273.84,203H260.4l-2.58,6.53H247.53L261.94,172h10.62l14.1,37.45h-10.4Zm-2.63-7.41-4-11.93-4.09,11.93Z"/><text class="cls-2" transform="translate(118.67 322.64) rotate(28.22)">·</text><text class="cls-2" transform="translate(126.25 326.52) rotate(24.81)"> </text><text class="cls-2" transform="matrix(0.94, 0.35, -0.35, 0.94, 134.83, 330.33)">C</text><text class="cls-2" transform="translate(148.25 335) rotate(14.56)">O</text><text class="cls-2" transform="translate(163.48 338.61) rotate(8.75)">H</text><text class="cls-2" transform="translate(178.05 340.57) rotate(2.98)">O</text><text class="cls-2" transform="translate(193.65 341.05) rotate(-2.61)">R</text><text class="cls-2" transform="translate(207.7 340.12) rotate(-7.79)">T</text><text class="cls-2" transform="matrix(0.98, -0.21, 0.21, 0.98, 220.83, 338.02)"> </text><text class="cls-2" transform="translate(229.89 335.88) rotate(-15.64)">I</text><text class="cls-2" transform="translate(238.6 333.31) rotate(-20.16)">V</text><text class="cls-2" transform="translate(252.05 328) rotate(-24.74)"> </text><text class="cls-2" transform="translate(260.39 323.95) rotate(-28.14)">·</text><text class="cls-2" transform="matrix(0.85, -0.52, 0.52, 0.85, 267.82, 319.79)"> </text><text class="cls-2" transform="translate(51.26 163.32) rotate(-78.31)">I</text><text class="cls-2" transform="matrix(0.32, -0.95, 0.95, 0.32, 54.57, 149.64)">O</text><text class="cls-2" transform="translate(61.73 130.9) rotate(-63.37)">V</text><text class="cls-2" transform="translate(71.16 113.91) rotate(-56.6)">I</text><text class="cls-2" transform="matrix(0.65, -0.76, 0.76, 0.65, 79.29, 102.45)">N</text><text class="cls-2" transform="matrix(0.74, -0.67, 0.67, 0.74, 92.69, 87.8)">E</text><text class="cls-2" transform="translate(106.93 75.95) rotate(-35.5)"> </text><text class="cls-2" transform="translate(118.92 68.02) rotate(-28.82)">&amp;</text><text class="cls-2" transform="matrix(0.93, -0.38, 0.38, 0.93, 135.77, 59.64)"> </text><text class="cls-2" transform="translate(149.26 54.71) rotate(-15.31)">Y</text><text class="cls-2" transform="translate(167.09 50.5) rotate(-7.58)">O</text><text class="cls-2" transform="matrix(1, 0.02, -0.02, 1, 187.5, 48.55)">U</text><text class="cls-2" transform="translate(206.99 49.47) rotate(8.27)">N</text><text class="cls-2" transform="translate(226.5 53.08) rotate(16.3)">G</text><text class="cls-2" transform="matrix(0.92, 0.39, -0.39, 0.92, 245.24, 59.42)"> </text><text class="cls-2" transform="translate(258.23 65.54) rotate(30.16)">A</text><text class="cls-2" transform="translate(274.64 75.91) rotate(37.85)">C</text><text class="cls-2" transform="matrix(0.7, 0.72, -0.72, 0.7, 289.37, 88.29)">A</text><text class="cls-2" transform="matrix(0.59, 0.81, -0.81, 0.59, 302.67, 102.99)">D</text><text class="cls-2" transform="translate(313.75 119.35) rotate(61.33)">E</text><text class="cls-2" transform="matrix(0.35, 0.94, -0.94, 0.35, 322.01, 135.88)">M</text><text class="cls-2" transform="translate(328.56 155.52) rotate(77.33)">Y</text><path class="cls-1" d="M190.76,17.83A172.93,172.93,0,0,1,313,313,172.93,172.93,0,1,1,68.48,68.48,171.8,171.8,0,0,1,190.76,17.83m0-.25A173.18,173.18,0,1,0,363.94,190.76,173.18,173.18,0,0,0,190.76,17.58Z"/><path class="cls-1" d="M190.76,6c102,0,184.76,82.72,184.76,184.76S292.8,375.52,190.76,375.52,6,292.8,6,190.76,88.72,6,190.76,6m0-6a190.81,190.81,0,0,0-74.26,366.53A190.81,190.81,0,0,0,265,15,189.57,189.57,0,0,0,190.76,0Z"/></svg>